<?xml version="1.0" encoding="UTF-8" standalone="no"?>
<!-- Created with Inkscape (http://www.inkscape.org/) -->
<svg
   xmlns:dc="http://purl.org/dc/elements/1.1/"
   xmlns:cc="http://creativecommons.org/ns#"
   xmlns:rdf="http://www.w3.org/1999/02/22-rdf-syntax-ns#"
   xmlns:svg="http://www.w3.org/2000/svg"
   xmlns="http://www.w3.org/2000/svg"
   xmlns:xlink="http://www.w3.org/1999/xlink"
   xmlns:sodipodi="http://sodipodi.sourceforge.net/DTD/sodipodi-0.dtd"
   xmlns:inkscape="http://www.inkscape.org/namespaces/inkscape"
   width="425.19684"
   height="921.25983"
   id="svg2"
   sodipodi:version="0.32"
   inkscape:version="0.46"
   version="1.0"
   sodipodi:docname="xbtypes.svg"
   inkscape:output_extension="org.inkscape.output.svg.inkscape">
  <defs
     id="defs4">
    <linearGradient
       id="linearGradient3421">
      <stop
         style="stop-color:#d11bff;stop-opacity:1;"
         offset="0"
         id="stop3423" />
      <stop
         style="stop-color:#e95ef8;stop-opacity:1;"
         offset="1"
         id="stop3425" />
    </linearGradient>
    <linearGradient
       id="linearGradient5880">
      <stop
         style="stop-color:#ca0000;stop-opacity:1;"
         offset="0"
         id="stop5882" />
      <stop
         style="stop-color:#ff4c4c;stop-opacity:1;"
         offset="1"
         id="stop5884" />
    </linearGradient>
    <linearGradient
       id="linearGradient5834">
      <stop
         id="stop5836"
         offset="0"
         style="stop-color:#44e2ff;stop-opacity:1;" />
      <stop
         id="stop5838"
         offset="1"
         style="stop-color:#4453ac;stop-opacity:1;" />
    </linearGradient>
    <linearGradient
       id="linearGradient5822">
      <stop
         style="stop-color:#44ee86;stop-opacity:1;"
         offset="0"
         id="stop5824" />
      <stop
         style="stop-color:#44ab00;stop-opacity:1;"
         offset="1"
         id="stop5826" />
    </linearGradient>
    <marker
       inkscape:stockid="DotS"
       orient="auto"
       refY="0"
       refX="0"
       id="DotS"
       style="overflow:visible">
      <path
         id="path3249"
         d="M -2.5,-1 C -2.5,1.76 -4.74,4 -7.5,4 C -10.26,4 -12.5,1.76 -12.5,-1 C -12.5,-3.76 -10.26,-6 -7.5,-6 C -4.74,-6 -2.5,-3.76 -2.5,-1 z"
         style="fill-rule:evenodd;stroke:#000000;stroke-width:1pt;marker-start:none;marker-end:none"
         transform="matrix(0.2,0,0,0.2,1.48,0.2)" />
    </marker>
    <marker
       inkscape:stockid="DotM"
       orient="auto"
       refY="0"
       refX="0"
       id="DotM"
       style="overflow:visible">
      <path
         id="path3246"
         d="M -2.5,-1 C -2.5,1.76 -4.74,4 -7.5,4 C -10.26,4 -12.5,1.76 -12.5,-1 C -12.5,-3.76 -10.26,-6 -7.5,-6 C -4.74,-6 -2.5,-3.76 -2.5,-1 z"
         style="fill-rule:evenodd;stroke:#000000;stroke-width:1pt;marker-start:none;marker-end:none"
         transform="matrix(0.4,0,0,0.4,2.96,0.4)" />
    </marker>
    <inkscape:perspective
       sodipodi:type="inkscape:persp3d"
       inkscape:vp_x="0 : 526.18109 : 1"
       inkscape:vp_y="0 : 1000 : 0"
       inkscape:vp_z="744.09448 : 526.18109 : 1"
       inkscape:persp3d-origin="372.04724 : 350.78739 : 1"
       id="perspective10" />
    <path
       d="M2.984375 -54.6875l9.515625 0.0l17.09375 45.890625l17.09375 -45.890625l9.515625 0.0l-20.515625 54.6875l-12.203125 0.0z"
       id="c_20" />
    <path
       d="M34.28125 -27.484375q-10.890625 0.0 -15.09375 2.484375q-4.203125 2.484375 -4.203125 8.5q0.0 4.78125 3.15625 7.59375q3.15625 2.796875 8.5625 2.796875q7.484375 0.0 12.0 -5.296875q4.515625 -5.296875 4.515625 -14.078125l0.0 -2.0zM52.203125 -31.203125l0.0 31.203125l-8.984375 0.0l0.0 -8.296875q-3.078125 4.96875 -7.671875 7.34375q-4.59375 2.375 -11.234375 2.375q-8.390625 0.0 -13.359375 -4.71875q-4.953125 -4.71875 -4.953125 -12.625q0.0 -9.21875 6.171875 -13.90625q6.1875 -4.6875 18.4375 -4.6875l12.609375 0.0l0.0 -0.890625q0.0 -6.203125 -4.078125 -9.59375q-4.078125 -3.390625 -11.453125 -3.390625q-4.6875 0.0 -9.140625 1.125q-4.4375 1.125 -8.53125 3.375l0.0 -8.3125q4.921875 -1.90625 9.5625 -2.84375q4.640625 -0.953125 9.03125 -0.953125q11.875 0.0 17.734375 6.15625q5.859375 6.140625 5.859375 18.640625"
       id="c_a" />
    <path
       d="M30.609375 -48.390625q-7.21875 0.0 -11.421875 5.640625q-4.203125 5.640625 -4.203125 15.453125q0.0 9.8125 4.171875 15.453125q4.1875 5.640625 11.453125 5.640625q7.1875 0.0 11.375 -5.65625q4.203125 -5.671875 4.203125 -15.4375q0.0 -9.71875 -4.203125 -15.40625q-4.1875 -5.6875 -11.375 -5.6875M30.609375 -56.0q11.71875 0.0 18.40625 7.625q6.703125 7.609375 6.703125 21.078125q0.0 13.421875 -6.703125 21.078125q-6.6875 7.640625 -18.40625 7.640625q-11.765625 0.0 -18.4375 -7.640625q-6.65625 -7.65625 -6.65625 -21.078125q0.0 -13.46875 6.65625 -21.078125q6.671875 -7.625 18.4375 -7.625"
       id="c_8" />
    <path
       d="M54.890625 -33.015625l0.0 33.015625l-8.984375 0.0l0.0 -32.71875q0.0 -7.765625 -3.03125 -11.609375q-3.03125 -3.859375 -9.078125 -3.859375q-7.28125 0.0 -11.484375 4.640625q-4.203125 4.625 -4.203125 12.640625l0.0 30.90625l-9.03125 0.0l0.0 -54.6875l9.03125 0.0l0.0 8.5q3.234375 -4.9375 7.59375 -7.375q4.375 -2.4375 10.09375 -2.4375q9.421875 0.0 14.25 5.828125q4.84375 5.828125 4.84375 17.15625"
       id="c_d" />
    <path
       d="M48.78125 -52.59375l0.0 8.40625q-3.8125 -2.109375 -7.640625 -3.15625q-3.828125 -1.046875 -7.734375 -1.046875q-8.75 0.0 -13.59375 5.546875q-4.828125 5.53125 -4.828125 15.546875q0.0 10.015625 4.828125 15.5625q4.84375 5.53125 13.59375 5.53125q3.90625 0.0 7.734375 -1.046875q3.828125 -1.046875 7.640625 -3.15625l0.0 8.3125q-3.765625 1.75 -7.796875 2.625q-4.015625 0.890625 -8.5625 0.890625q-12.359375 0.0 -19.640625 -7.765625q-7.265625 -7.765625 -7.265625 -20.953125q0.0 -13.375 7.34375 -21.03125q7.359375 -7.671875 20.15625 -7.671875q4.140625 0.0 8.09375 0.859375q3.953125 0.84375 7.671875 2.546875"
       id="c_9" />
    <path
       d="M48.6875 -27.296875q0.0 -9.90625 -4.078125 -15.546875q-4.078125 -5.640625 -11.203125 -5.640625q-7.140625 0.0 -11.21875 5.640625q-4.078125 5.640625 -4.078125 15.546875q0.0 9.90625 4.078125 15.546875q4.078125 5.640625 11.21875 5.640625q7.125 0.0 11.203125 -5.640625q4.078125 -5.640625 4.078125 -15.546875M18.109375 -46.390625q2.84375 -4.875 7.15625 -7.234375q4.328125 -2.375 10.328125 -2.375q9.96875 0.0 16.1875 7.90625q6.234375 7.90625 6.234375 20.796875q0.0 12.890625 -6.234375 20.8125q-6.21875 7.90625 -16.1875 7.90625q-6.0 0.0 -10.328125 -2.375q-4.3125 -2.375 -7.15625 -7.25l0.0 8.203125l-9.03125 0.0l0.0 -75.984375l9.03125 0.0z"
       id="c_25" />
    <path
       d="M44.28125 -53.078125l0.0 8.5q-3.796875 -1.953125 -7.90625 -2.921875q-4.09375 -0.984375 -8.5 -0.984375q-6.6875 0.0 -10.03125 2.046875q-3.34375 2.046875 -3.34375 6.15625q0.0 3.125 2.390625 4.90625q2.390625 1.78125 9.625 3.390625l3.078125 0.6875q9.5625 2.046875 13.59375 5.78125q4.03125 3.734375 4.03125 10.421875q0.0 7.625 -6.03125 12.078125q-6.03125 4.4375 -16.578125 4.4375q-4.390625 0.0 -9.15625 -0.859375q-4.765625 -0.859375 -10.03125 -2.5625l0.0 -9.28125q4.984375 2.59375 9.8125 3.890625q4.828125 1.28125 9.578125 1.28125q6.34375 0.0 9.75 -2.171875q3.421875 -2.171875 3.421875 -6.125q0.0 -3.65625 -2.46875 -5.609375q-2.453125 -1.953125 -10.8125 -3.765625l-3.125 -0.734375q-8.34375 -1.75 -12.0625 -5.390625q-3.703125 -3.640625 -3.703125 -9.984375q0.0 -7.71875 5.46875 -11.90625q5.46875 -4.203125 15.53125 -4.203125q4.96875 0.0 9.359375 0.734375q4.40625 0.71875 8.109375 2.1875"
       id="c_24" />
    <path
       d="M41.109375 -46.296875q-1.515625 -0.875 -3.296875 -1.28125q-1.78125 -0.421875 -3.921875 -0.421875q-7.625 0.0 -11.703125 4.953125q-4.078125 4.953125 -4.078125 14.234375l0.0 28.8125l-9.03125 0.0l0.0 -54.6875l9.03125 0.0l0.0 8.5q2.84375 -4.984375 7.375 -7.390625q4.546875 -2.421875 11.046875 -2.421875q0.921875 0.0 2.046875 0.125q1.125 0.109375 2.484375 0.359375z"
       id="c_1c" />
    <path
       d="M18.3125 -70.21875l0.0 15.53125l18.5 0.0l0.0 6.984375l-18.5 0.0l0.0 29.6875q0.0 6.6875 1.828125 8.59375q1.828125 1.90625 7.453125 1.90625l9.21875 0.0l0.0 7.515625l-9.21875 0.0q-10.40625 0.0 -14.359375 -3.875q-3.953125 -3.890625 -3.953125 -14.140625l0.0 -29.6875l-6.59375 0.0l0.0 -6.984375l6.59375 0.0l0.0 -15.53125z"
       id="c_b" />
    <path
       d="M59.515625 -10.40625l0.0 -19.578125l-16.109375 0.0l0.0 -8.109375l25.875 0.0l0.0 31.3125q-5.703125 4.046875 -12.59375 6.125q-6.875 2.078125 -14.6875 2.078125q-17.09375 0.0 -26.75 -9.984375q-9.640625 -10.0 -9.640625 -27.8125q0.0 -17.875 9.640625 -27.859375q9.65625 -9.984375 26.75 -9.984375q7.125 0.0 13.546875 1.765625q6.421875 1.75 11.84375 5.171875l0.0 10.5q-5.46875 -4.640625 -11.625 -6.984375q-6.15625 -2.34375 -12.9375 -2.34375q-13.390625 0.0 -20.109375 7.46875q-6.703125 7.46875 -6.703125 22.265625q0.0 14.75 6.703125 22.21875q6.71875 7.46875 20.109375 7.46875q5.21875 0.0 9.3125 -0.90625q4.109375 -0.90625 7.375 -2.8125"
       id="c_23" />
    <path
       d="M9.8125 -72.90625l9.859375 0.0l0.0 64.609375l35.5 0.0l0.0 8.296875l-45.359375 0.0z"
       id="c_7" />
    <path
       d="M31.78125 -34.625q-7.03125 0.0 -11.0625 3.765625q-4.015625 3.765625 -4.015625 10.34375q0.0 6.59375 4.015625 10.359375q4.03125 3.765625 11.0625 3.765625q7.03125 0.0 11.078125 -3.78125q4.0625 -3.796875 4.0625 -10.34375q0.0 -6.578125 -4.03125 -10.34375q-4.015625 -3.765625 -11.109375 -3.765625M21.921875 -38.8125q-6.34375 -1.5625 -9.890625 -5.90625q-3.53125 -4.359375 -3.53125 -10.609375q0.0 -8.734375 6.21875 -13.8125q6.234375 -5.078125 17.0625 -5.078125q10.890625 0.0 17.09375 5.078125q6.203125 5.078125 6.203125 13.8125q0.0 6.25 -3.546875 10.609375q-3.53125 4.34375 -9.828125 5.90625q7.125 1.65625 11.09375 6.5q3.984375 4.828125 3.984375 11.796875q0.0 10.609375 -6.46875 16.28125q-6.46875 5.65625 -18.53125 5.65625q-12.046875 0.0 -18.53125 -5.65625q-6.46875 -5.671875 -6.46875 -16.28125q0.0 -6.96875 4.0 -11.796875q4.015625 -4.84375 11.140625 -6.5M18.3125 -54.390625q0.0 5.65625 3.53125 8.828125q3.546875 3.171875 9.9375 3.171875q6.359375 0.0 9.9375 -3.171875q3.59375 -3.171875 3.59375 -8.828125q0.0 -5.671875 -3.59375 -8.84375q-3.578125 -3.171875 -9.9375 -3.171875q-6.390625 0.0 -9.9375 3.171875q-3.53125 3.171875 -3.53125 8.84375"
       id="c_5" />
    <path
       d="M8.203125 -72.90625l46.875 0.0l0.0 4.203125l-26.46875 68.703125l-10.296875 0.0l24.90625 -64.59375l-35.015625 0.0z"
       id="c_19" />
    <path
       d="M33.015625 -40.375q-6.640625 0.0 -10.53125 4.546875q-3.875 4.53125 -3.875 12.4375q0.0 7.859375 3.875 12.4375q3.890625 4.5625 10.53125 4.5625q6.640625 0.0 10.515625 -4.5625q3.875 -4.578125 3.875 -12.4375q0.0 -7.90625 -3.875 -12.4375q-3.875 -4.546875 -10.515625 -4.546875M52.59375 -71.296875l0.0 8.984375q-3.71875 -1.75 -7.5 -2.671875q-3.78125 -0.9375 -7.5 -0.9375q-9.765625 0.0 -14.921875 6.59375q-5.140625 6.59375 -5.875 19.921875q2.875 -4.25 7.21875 -6.515625q4.359375 -2.265625 9.578125 -2.265625q10.984375 0.0 17.359375 6.671875q6.375 6.65625 6.375 18.125q0.0 11.234375 -6.640625 18.03125q-6.640625 6.78125 -17.671875 6.78125q-12.65625 0.0 -19.34375 -9.6875q-6.6875 -9.703125 -6.6875 -28.109375q0.0 -17.28125 8.203125 -27.5625q8.203125 -10.28125 22.015625 -10.28125q3.71875 0.0 7.5 0.734375q3.78125 0.734375 7.890625 2.1875"
       id="c_4" />
    <path
       d="M37.796875 -64.3125l-24.90625 38.921875l24.90625 0.0zM35.203125 -72.90625l12.40625 0.0l0.0 47.515625l10.40625 0.0l0.0 8.203125l-10.40625 0.0l0.0 17.1875l-9.8125 0.0l0.0 -17.1875l-32.90625 0.0l0.0 -9.515625z"
       id="c_3" />
    <path
       d="M40.578125 -39.3125q7.078125 1.515625 11.046875 6.3125q3.984375 4.78125 3.984375 11.8125q0.0 10.78125 -7.421875 16.703125q-7.421875 5.90625 -21.09375 5.90625q-4.578125 0.0 -9.4375 -0.90625q-4.859375 -0.90625 -10.03125 -2.71875l0.0 -9.515625q4.09375 2.390625 8.96875 3.609375q4.890625 1.21875 10.21875 1.21875q9.265625 0.0 14.125 -3.65625q4.859375 -3.65625 4.859375 -10.640625q0.0 -6.453125 -4.515625 -10.078125q-4.515625 -3.640625 -12.5625 -3.640625l-8.5 0.0l0.0 -8.109375l8.890625 0.0q7.265625 0.0 11.125 -2.90625q3.859375 -2.90625 3.859375 -8.375q0.0 -5.609375 -3.984375 -8.609375q-3.96875 -3.015625 -11.390625 -3.015625q-4.0625 0.0 -8.703125 0.890625q-4.640625 0.875 -10.203125 2.71875l0.0 -8.78125q5.625 -1.5625 10.53125 -2.34375q4.90625 -0.78125 9.25 -0.78125q11.234375 0.0 17.765625 5.109375q6.546875 5.09375 6.546875 13.78125q0.0 6.0625 -3.46875 10.234375q-3.46875 4.171875 -9.859375 5.78125"
       id="c_1a" />
    <path
       d="M19.1875 -8.296875l34.421875 0.0l0.0 8.296875l-46.28125 0.0l0.0 -8.296875q5.609375 -5.8125 15.296875 -15.59375q9.703125 -9.796875 12.1875 -12.640625q4.734375 -5.3125 6.609375 -9.0q1.890625 -3.6875 1.890625 -7.25q0.0 -5.8125 -4.078125 -9.46875q-4.078125 -3.671875 -10.625 -3.671875q-4.640625 0.0 -9.796875 1.609375q-5.140625 1.609375 -11.0 4.890625l0.0 -9.96875q5.953125 -2.390625 11.125 -3.609375q5.1875 -1.21875 9.484375 -1.21875q11.328125 0.0 18.0625 5.671875q6.734375 5.65625 6.734375 15.125q0.0 4.5 -1.6875 8.53125q-1.671875 4.015625 -6.125 9.484375q-1.21875 1.421875 -7.765625 8.1875q-6.53125 6.765625 -18.453125 18.921875"
       id="c_1" />
    <path
       d=""
       id="c_e" />
    <path
       d="M54.890625 -54.6875l-19.78125 26.609375l20.796875 28.078125l-10.59375 0.0l-15.921875 -21.484375l-15.90625 21.484375l-10.609375 0.0l21.25 -28.609375l-19.4375 -26.078125l10.59375 0.0l14.5 19.484375l14.5 -19.484375z"
       id="c_21" />
    <path
       d="M32.171875 5.078125q-3.796875 9.765625 -7.421875 12.734375q-3.609375 2.984375 -9.65625 2.984375l-7.1875 0.0l0.0 -7.515625l5.28125 0.0q3.703125 0.0 5.75 -1.765625q2.0625 -1.75 4.546875 -8.296875l1.609375 -4.09375l-22.109375 -53.8125l9.515625 0.0l17.09375 42.765625l17.09375 -42.765625l9.515625 0.0z"
       id="c_1e" />
    <path
       d="M6.296875 -72.90625l10.59375 0.0l18.125 27.109375l18.203125 -27.109375l10.59375 0.0l-23.4375 35.015625l25.0 37.890625l-10.59375 0.0l-20.5 -31.0l-20.65625 31.0l-10.640625 0.0l26.015625 -38.921875z"
       id="c_10" />
    <path
       d="M9.421875 -75.984375l8.984375 0.0l0.0 75.984375l-8.984375 0.0z"
       id="c_1f" />
    <path
       d="M52.0 -44.1875q3.375 -6.0625 8.0625 -8.9375q4.6875 -2.875 11.03125 -2.875q8.546875 0.0 13.1875 5.984375q4.640625 5.96875 4.640625 17.0l0.0 33.015625l-9.03125 0.0l0.0 -32.71875q0.0 -7.859375 -2.796875 -11.65625q-2.78125 -3.8125 -8.484375 -3.8125q-6.984375 0.0 -11.046875 4.640625q-4.046875 4.625 -4.046875 12.640625l0.0 30.90625l-9.03125 0.0l0.0 -32.71875q0.0 -7.90625 -2.78125 -11.6875q-2.78125 -3.78125 -8.59375 -3.78125q-6.890625 0.0 -10.953125 4.65625q-4.046875 4.65625 -4.046875 12.625l0.0 30.90625l-9.03125 0.0l0.0 -54.6875l9.03125 0.0l0.0 8.5q3.078125 -5.03125 7.375 -7.421875q4.296875 -2.390625 10.203125 -2.390625q5.96875 0.0 10.140625 3.03125q4.171875 3.015625 6.171875 8.78125"
       id="c_16" />
    <path
       d="M54.890625 -33.015625l0.0 33.015625l-8.984375 0.0l0.0 -32.71875q0.0 -7.765625 -3.03125 -11.609375q-3.03125 -3.859375 -9.078125 -3.859375q-7.28125 0.0 -11.484375 4.640625q-4.203125 4.625 -4.203125 12.640625l0.0 30.90625l-9.03125 0.0l0.0 -75.984375l9.03125 0.0l0.0 29.796875q3.234375 -4.9375 7.59375 -7.375q4.375 -2.4375 10.09375 -2.4375q9.421875 0.0 14.25 5.828125q4.84375 5.828125 4.84375 17.15625"
       id="c_12" />
    <path
       d="M9.421875 -54.6875l8.984375 0.0l0.0 54.6875l-8.984375 0.0zM9.421875 -75.984375l8.984375 0.0l0.0 11.390625l-8.984375 0.0z"
       id="c_c" />
    <path
       d="M37.109375 -75.984375l0.0 7.484375l-8.59375 0.0q-4.828125 0.0 -6.71875 1.953125q-1.875 1.953125 -1.875 7.03125l0.0 4.828125l14.796875 0.0l0.0 6.984375l-14.796875 0.0l0.0 47.703125l-9.03125 0.0l0.0 -47.703125l-8.59375 0.0l0.0 -6.984375l8.59375 0.0l0.0 -3.8125q0.0 -9.125 4.25 -13.296875q4.25 -4.1875 13.46875 -4.1875z"
       id="c_f" />
    <path
       d="M45.40625 -27.984375q0.0 -9.765625 -4.03125 -15.125q-4.015625 -5.375 -11.296875 -5.375q-7.21875 0.0 -11.25 5.375q-4.03125 5.359375 -4.03125 15.125q0.0 9.71875 4.03125 15.09375q4.03125 5.375 11.25 5.375q7.28125 0.0 11.296875 -5.375q4.03125 -5.375 4.03125 -15.09375M54.390625 -6.78125q0.0 13.953125 -6.203125 20.765625q-6.1875 6.8125 -18.984375 6.8125q-4.734375 0.0 -8.9375 -0.703125q-4.203125 -0.703125 -8.15625 -2.171875l0.0 -8.734375q3.953125 2.140625 7.8125 3.15625q3.859375 1.03125 7.859375 1.03125q8.84375 0.0 13.234375 -4.609375q4.390625 -4.609375 4.390625 -13.9375l0.0 -4.453125q-2.78125 4.84375 -7.125 7.234375q-4.34375 2.390625 -10.40625 2.390625q-10.046875 0.0 -16.203125 -7.65625q-6.15625 -7.671875 -6.15625 -20.328125q0.0 -12.6875 6.15625 -20.34375q6.15625 -7.671875 16.203125 -7.671875q6.0625 0.0 10.40625 2.390625q4.34375 2.390625 7.125 7.21875l0.0 -8.296875l8.984375 0.0z"
       id="c_1d" />
    <path
       d="M45.40625 -46.390625l0.0 -29.59375l8.984375 0.0l0.0 75.984375l-8.984375 0.0l0.0 -8.203125q-2.828125 4.875 -7.15625 7.25q-4.3125 2.375 -10.375 2.375q-9.90625 0.0 -16.140625 -7.90625q-6.21875 -7.921875 -6.21875 -20.8125q0.0 -12.890625 6.21875 -20.796875q6.234375 -7.90625 16.140625 -7.90625q6.0625 0.0 10.375 2.375q4.328125 2.359375 7.15625 7.234375M14.796875 -27.296875q0.0 9.90625 4.078125 15.546875q4.078125 5.640625 11.203125 5.640625q7.125 0.0 11.21875 -5.640625q4.109375 -5.640625 4.109375 -15.546875q0.0 -9.90625 -4.109375 -15.546875q-4.09375 -5.640625 -11.21875 -5.640625q-7.125 0.0 -11.203125 5.640625q-4.078125 5.640625 -4.078125 15.546875"
       id="c_14" />
    <path
       d="M56.203125 -29.59375l0.0 4.390625l-41.3125 0.0q0.59375 9.28125 5.59375 14.140625q5.0 4.859375 13.9375 4.859375q5.171875 0.0 10.03125 -1.265625q4.859375 -1.265625 9.65625 -3.8125l0.0 8.5q-4.84375 2.046875 -9.921875 3.125q-5.078125 1.078125 -10.296875 1.078125q-13.09375 0.0 -20.734375 -7.609375q-7.640625 -7.625 -7.640625 -20.625q0.0 -13.421875 7.25 -21.296875q7.25 -7.890625 19.5625 -7.890625q11.03125 0.0 17.453125 7.109375q6.421875 7.09375 6.421875 19.296875M47.21875 -32.234375q-0.09375 -7.359375 -4.125 -11.75q-4.03125 -4.40625 -10.671875 -4.40625q-7.515625 0.0 -12.03125 4.25q-4.515625 4.25 -5.203125 11.96875z"
       id="c_13" />
    <path
       d="M31.78125 -66.40625q-7.609375 0.0 -11.453125 7.5q-3.828125 7.484375 -3.828125 22.53125q0.0 14.984375 3.828125 22.484375q3.84375 7.5 11.453125 7.5q7.671875 0.0 11.5 -7.5q3.84375 -7.5 3.84375 -22.484375q0.0 -15.046875 -3.84375 -22.53125q-3.828125 -7.5 -11.5 -7.5M31.78125 -74.21875q12.265625 0.0 18.734375 9.703125q6.46875 9.6875 6.46875 28.140625q0.0 18.40625 -6.46875 28.109375q-6.46875 9.6875 -18.734375 9.6875q-12.25 0.0 -18.71875 -9.6875q-6.46875 -9.703125 -6.46875 -28.109375q0.0 -18.453125 6.46875 -28.140625q6.46875 -9.703125 18.71875 -9.703125"
       id="c_2" />
    <path
       d="M12.40625 -8.296875l16.109375 0.0l0.0 -55.625l-17.53125 3.515625l0.0 -8.984375l17.4375 -3.515625l9.859375 0.0l0.0 64.609375l16.109375 0.0l0.0 8.296875l-41.984375 0.0z"
       id="c_6" />
    <path
       d="M19.671875 -34.8125l0.0 26.703125l15.828125 0.0q7.953125 0.0 11.78125 -3.296875q3.84375 -3.296875 3.84375 -10.078125q0.0 -6.84375 -3.84375 -10.078125q-3.828125 -3.25 -11.78125 -3.25zM19.671875 -64.796875l0.0 21.96875l14.609375 0.0q7.21875 0.0 10.75 -2.703125q3.546875 -2.71875 3.546875 -8.28125q0.0 -5.515625 -3.546875 -8.25q-3.53125 -2.734375 -10.75 -2.734375zM9.8125 -72.90625l25.203125 0.0q11.28125 0.0 17.375 4.6875q6.109375 4.6875 6.109375 13.328125q0.0 6.703125 -3.125 10.65625q-3.125 3.953125 -9.1875 4.921875q7.28125 1.5625 11.3125 6.53125q4.03125 4.953125 4.03125 12.375q0.0 9.765625 -6.640625 15.09375q-6.640625 5.3125 -18.90625 5.3125l-26.171875 0.0z"
       id="c_11" />
    <path
       d="M64.40625 -67.28125l0.0 10.390625q-4.984375 -4.640625 -10.625 -6.921875q-5.640625 -2.296875 -11.984375 -2.296875q-12.5 0.0 -19.140625 7.640625q-6.640625 7.640625 -6.640625 22.09375q0.0 14.40625 6.640625 22.046875q6.640625 7.640625 19.140625 7.640625q6.34375 0.0 11.984375 -2.296875q5.640625 -2.296875 10.625 -6.9375l0.0 10.3125q-5.171875 3.515625 -10.96875 5.28125q-5.78125 1.75 -12.21875 1.75q-16.5625 0.0 -26.09375 -10.125q-9.515625 -10.140625 -9.515625 -27.671875q0.0 -17.578125 9.515625 -27.703125q9.53125 -10.140625 26.09375 -10.140625q6.53125 0.0 12.3125 1.734375q5.796875 1.734375 10.875 5.203125"
       id="c_22" />
    <path
       d="M31.0 -75.875q-6.53125 11.21875 -9.71875 22.21875q-3.171875 10.984375 -3.171875 22.265625q0.0 11.265625 3.203125 22.328125q3.203125 11.0625 9.6875 22.25l-7.8125 0.0q-7.3125 -11.484375 -10.953125 -22.5625q-3.640625 -11.078125 -3.640625 -22.015625q0.0 -10.890625 3.609375 -21.921875q3.625 -11.046875 10.984375 -22.5625z"
       id="c_15" />
    <path
       d="M8.015625 -75.875l7.8125 0.0q7.3125 11.515625 10.953125 22.5625q3.640625 11.03125 3.640625 21.921875q0.0 10.9375 -3.640625 22.015625q-3.640625 11.078125 -10.953125 22.5625l-7.8125 0.0q6.484375 -11.1875 9.6875 -22.25q3.203125 -11.0625 3.203125 -22.328125q0.0 -11.28125 -3.203125 -22.265625q-3.203125 -11.0 -9.6875 -22.21875"
       id="c_17" />
    <path
       d="M9.8125 -72.90625l46.09375 0.0l0.0 8.3125l-36.234375 0.0l0.0 21.578125l34.71875 0.0l0.0 8.296875l-34.71875 0.0l0.0 26.421875l37.109375 0.0l0.0 8.296875l-46.96875 0.0z"
       id="c_1b" />
    <path
       d="M4.890625 -31.390625l26.3125 0.0l0.0 8.0l-26.3125 0.0z"
       id="c_0" />
    <path
       d="M10.6875 -12.40625l10.3125 0.0l0.0 12.40625l-10.3125 0.0z"
       id="c_18" />
    <inkscape:perspective
       id="perspective3682"
       inkscape:persp3d-origin="613.125 : 373.33333 : 1"
       inkscape:vp_z="1226.25 : 560 : 1"
       inkscape:vp_y="0 : 1000 : 0"
       inkscape:vp_x="0 : 560 : 1"
       sodipodi:type="inkscape:persp3d" />
    <linearGradient
       inkscape:collect="always"
       xlink:href="#linearGradient5880"
       id="linearGradient2519"
       gradientUnits="userSpaceOnUse"
       x1="48"
       y1="301.25983"
       x2="162"
       y2="331.25983" />
    <radialGradient
       inkscape:collect="always"
       xlink:href="#linearGradient5834"
       id="radialGradient2521"
       gradientUnits="userSpaceOnUse"
       cx="49.075115"
       cy="144.93857"
       fx="49.075115"
       fy="144.93857"
       r="5.25" />
    <radialGradient
       inkscape:collect="always"
       xlink:href="#linearGradient5822"
       id="radialGradient2523"
       gradientUnits="userSpaceOnUse"
       cx="49.075115"
       cy="144.93857"
       fx="49.075115"
       fy="144.93857"
       r="5.25" />
    <linearGradient
       inkscape:collect="always"
       xlink:href="#linearGradient5880"
       id="linearGradient3359"
       gradientUnits="userSpaceOnUse"
       gradientTransform="matrix(0.8660254,0.5,-0.5,0.8660254,78.156102,225.00197)"
       x1="48"
       y1="301.25983"
       x2="162"
       y2="331.25983" />
    <radialGradient
       inkscape:collect="always"
       xlink:href="#linearGradient5822"
       id="radialGradient3361"
       gradientUnits="userSpaceOnUse"
       cx="49.075115"
       cy="144.93857"
       fx="49.075115"
       fy="144.93857"
       r="5.25" />
    <radialGradient
       inkscape:collect="always"
       xlink:href="#linearGradient5834"
       id="radialGradient3363"
       gradientUnits="userSpaceOnUse"
       gradientTransform="matrix(8.1770292e-8,1.1113792,-1.1113781,1.3413517e-7,476.79058,560.67657)"
       cx="-40.000011"
       cy="468.28821"
       fx="-40.000011"
       fy="468.28821"
       r="8.9978371" />
    <linearGradient
       inkscape:collect="always"
       xlink:href="#linearGradient3421"
       id="linearGradient3463"
       gradientUnits="userSpaceOnUse"
       x1="-71.208557"
       y1="645.20312"
       x2="39.572018"
       y2="645.20312" />
    <radialGradient
       inkscape:collect="always"
       xlink:href="#linearGradient5822"
       id="radialGradient3465"
       gradientUnits="userSpaceOnUse"
       cx="49.075115"
       cy="144.93857"
       fx="49.075115"
       fy="144.93857"
       r="5.25" />
    <linearGradient
       inkscape:collect="always"
       xlink:href="#linearGradient5880"
       id="linearGradient3467"
       gradientUnits="userSpaceOnUse"
       x1="20"
       y1="671.25983"
       x2="65"
       y2="721.25983" />
    <radialGradient
       inkscape:collect="always"
       xlink:href="#linearGradient5834"
       id="radialGradient3469"
       gradientUnits="userSpaceOnUse"
       gradientTransform="matrix(-0.7510324,0.8192155,-0.8192147,-0.7510317,390.58724,1044.7277)"
       cx="-40.000011"
       cy="468.28821"
       fx="-40.000011"
       fy="468.28821"
       r="8.9978371" />
    <linearGradient
       inkscape:collect="always"
       xlink:href="#linearGradient3421"
       id="linearGradient3543"
       gradientUnits="userSpaceOnUse"
       gradientTransform="translate(106.03125,205.85358)"
       x1="-71.208557"
       y1="645.20312"
       x2="39.572018"
       y2="645.20312" />
    <linearGradient
       inkscape:collect="always"
       xlink:href="#linearGradient5880"
       id="linearGradient3545"
       gradientUnits="userSpaceOnUse"
       gradientTransform="translate(106.03125,205.85358)"
       x1="20"
       y1="671.25983"
       x2="65"
       y2="721.25983" />
    <radialGradient
       inkscape:collect="always"
       xlink:href="#linearGradient5834"
       id="radialGradient3547"
       gradientUnits="userSpaceOnUse"
       gradientTransform="matrix(-0.7510324,0.8192155,-0.8192147,-0.7510317,496.61849,1250.5813)"
       cx="-40.000011"
       cy="468.28821"
       fx="-40.000011"
       fy="468.28821"
       r="8.9978371" />
    <radialGradient
       inkscape:collect="always"
       xlink:href="#linearGradient5822"
       id="radialGradient3549"
       gradientUnits="userSpaceOnUse"
       gradientTransform="matrix(1,0,0,0.9413093,14.820816,33.841672)"
       cx="13"
       cy="846.28131"
       fx="13"
       fy="846.28131"
       r="9.4016018" />
    <linearGradient
       inkscape:collect="always"
       xlink:href="#linearGradient3421"
       id="linearGradient3557"
       x1="-46.785526"
       y1="491.43988"
       x2="-41.785526"
       y2="516.43988"
       gradientUnits="userSpaceOnUse" />
    <linearGradient
       inkscape:collect="always"
       xlink:href="#linearGradient3421"
       id="linearGradient3565"
       x1="45"
       y1="290.75"
       x2="50"
       y2="315.75"
       gradientUnits="userSpaceOnUse" />
    <linearGradient
       inkscape:collect="always"
       xlink:href="#linearGradient5880"
       id="linearGradient3575"
       x1="230"
       y1="156.25983"
       x2="300"
       y2="166.25983"
       gradientUnits="userSpaceOnUse"
       gradientTransform="translate(0,-15)" />
    <linearGradient
       inkscape:collect="always"
       xlink:href="#linearGradient5834"
       id="linearGradient3579"
       gradientUnits="userSpaceOnUse"
       gradientTransform="translate(-5.7980469e-6,-30)"
       x1="230"
       y1="156.25983"
       x2="300"
       y2="166.25983" />
    <linearGradient
       inkscape:collect="always"
       xlink:href="#linearGradient3421"
       id="linearGradient3583"
       gradientUnits="userSpaceOnUse"
       gradientTransform="translate(-2.6673828e-6,-45)"
       x1="230"
       y1="156.25983"
       x2="300"
       y2="166.25983" />
    <linearGradient
       inkscape:collect="always"
       xlink:href="#linearGradient5822"
       id="linearGradient3587"
       gradientUnits="userSpaceOnUse"
       gradientTransform="translate(-5.7980469e-6,-60.000004)"
       x1="230"
       y1="156.25983"
       x2="300"
       y2="166.25983" />
    <inkscape:perspective
       id="perspective3815"
       inkscape:persp3d-origin="372.04724 : 350.78739 : 1"
       inkscape:vp_z="744.09448 : 526.18109 : 1"
       inkscape:vp_y="0 : 1000 : 0"
       inkscape:vp_x="0 : 526.18109 : 1"
       sodipodi:type="inkscape:persp3d" />
    <inkscape:perspective
       id="perspective4056"
       inkscape:persp3d-origin="372.04724 : 350.78739 : 1"
       inkscape:vp_z="744.09448 : 526.18109 : 1"
       inkscape:vp_y="0 : 1000 : 0"
       inkscape:vp_x="0 : 526.18109 : 1"
       sodipodi:type="inkscape:persp3d" />
    <inkscape:perspective
       id="perspective4140"
       inkscape:persp3d-origin="372.04724 : 350.78739 : 1"
       inkscape:vp_z="744.09448 : 526.18109 : 1"
       inkscape:vp_y="0 : 1000 : 0"
       inkscape:vp_x="0 : 526.18109 : 1"
       sodipodi:type="inkscape:persp3d" />
    <inkscape:perspective
       id="perspective4312"
       inkscape:persp3d-origin="372.04724 : 350.78739 : 1"
       inkscape:vp_z="744.09448 : 526.18109 : 1"
       inkscape:vp_y="0 : 1000 : 0"
       inkscape:vp_x="0 : 526.18109 : 1"
       sodipodi:type="inkscape:persp3d" />
  </defs>
  <sodipodi:namedview
     id="base"
     pagecolor="#ffffff"
     bordercolor="#666666"
     borderopacity="1.0"
     gridtolerance="10000"
     guidetolerance="10"
     objecttolerance="10"
     inkscape:pageopacity="0.0"
     inkscape:pageshadow="2"
     inkscape:zoom="0.90094019"
     inkscape:cx="227.02779"
     inkscape:cy="371.83379"
     inkscape:document-units="cm"
     inkscape:current-layer="layer1"
     showgrid="false"
     units="cm"
     inkscape:window-width="1678"
     inkscape:window-height="1034"
     inkscape:window-x="0"
     inkscape:window-y="14">
    <inkscape:grid
       type="xygrid"
       id="grid2402"
       visible="true"
       enabled="true" />
  </sodipodi:namedview>
  <metadata
     id="metadata7">
    <rdf:RDF>
      <cc:Work
         rdf:about="">
        <dc:format>image/svg+xml</dc:format>
        <dc:type
           rdf:resource="http://purl.org/dc/dcmitype/StillImage" />
      </cc:Work>
    </rdf:RDF>
  </metadata>
  <g
     inkscape:groupmode="layer"
     id="layer2"
     inkscape:label="Background"
     style="display:none">
    <rect
       style="fill:#ffffff;stroke:none;stroke-width:6"
       id="rect2387"
       width="429.64566"
       height="920.55115"
       x="0.35433072"
       y="0.70866358" />
  </g>
  <g
     inkscape:groupmode="layer"
     id="layer6"
     inkscape:label="Groupers">
    <rect
       style="fill:#ececec;fill-opacity:1;stroke:#000000;stroke-width:0.5;stroke-linecap:round;stroke-linejoin:miter;stroke-miterlimit:4;stroke-dasharray:none;stroke-opacity:1"
       id="rect4319"
       width="404.02237"
       height="178.70221"
       x="5.549758"
       y="167.60271"
       rx="13.214207"
       ry="14.154349" />
    <rect
       style="fill:#ececec;fill-opacity:1;stroke:#000000;stroke-width:0.5;stroke-linecap:round;stroke-linejoin:miter;stroke-miterlimit:4;stroke-dasharray:none;stroke-opacity:1"
       id="rect4321"
       width="404.02237"
       height="178.70221"
       x="5.549758"
       y="352.55624"
       rx="13.214207"
       ry="14.154349" />
    <rect
       style="fill:#ececec;fill-opacity:1;stroke:#000000;stroke-width:0.5;stroke-linecap:round;stroke-linejoin:miter;stroke-miterlimit:4;stroke-dasharray:none;stroke-opacity:1"
       id="rect4323"
       width="404.02237"
       height="178.70221"
       x="5.549758"
       y="537.50977"
       rx="13.214207"
       ry="14.154349" />
    <rect
       style="fill:#ececec;fill-opacity:1;stroke:#000000;stroke-width:0.5;stroke-linecap:round;stroke-linejoin:miter;stroke-miterlimit:4;stroke-dasharray:none;stroke-opacity:1"
       id="rect4325"
       width="404.02237"
       height="178.70221"
       x="5.549758"
       y="722.46332"
       rx="13.214207"
       ry="14.154349" />
  </g>
  <g
     inkscape:groupmode="layer"
     id="layer5"
     inkscape:label="Contours"
     style="display:inline">
    <image
       style="display:inline"
       y="366.20584"
       x="214.61189"
       id="image3817"
       height="160"
       width="170"
       sodipodi:absref="/home/dave/code/xbkinetics/imgs/xxCG.png"
       xlink:href="xxCG.png" />
    <image
       y="179.64568"
       x="214.61189"
       id="image4142"
       height="160"
       width="170"
       sodipodi:absref="/home/dave/code/xbkinetics/imgs/xNxG.png"
       xlink:href="xNxG.png" />
    <image
       style="display:inline"
       y="735.32611"
       x="214.61189"
       id="image4058"
       height="160"
       width="170"
       sodipodi:absref="/home/dave/code/xbkinetics/imgs/TNCG.png"
       xlink:href="TNCG.png" />
    <image
       y="550.76599"
       x="214.61189"
       id="image4314"
       height="160"
       width="170"
       sodipodi:absref="/home/dave/code/xbkinetics/imgs/xNCG.png"
       xlink:href="xNCG.png" />
  </g>
  <g
     inkscape:groupmode="layer"
     id="layer3"
     inkscape:label="XBs"
     style="display:inline">
    <g
       id="g2505"
       transform="translate(0,-54.490173)">
      <rect
         rx="0.99636352"
         ry="1.0035746"
         y="285.99731"
         x="25"
         height="10"
         width="160"
         id="rect5868"
         style="fill:#343434;fill-opacity:1;stroke:#505050;stroke-width:0.5;stroke-linecap:round;stroke-linejoin:miter;stroke-miterlimit:4;stroke-dasharray:none;stroke-opacity:1" />
      <rect
         ry="0.83493042"
         rx="1.0047388"
         y="291.03864"
         x="45.978985"
         height="24.958696"
         width="5.0420289"
         id="rect5870"
         style="fill:url(#linearGradient3565);fill-opacity:1;stroke:#bc417e;stroke-width:0.45797101000000001;stroke-linecap:round;stroke-linejoin:miter;stroke-miterlimit:4;stroke-dasharray:none;stroke-opacity:1" />
      <path
         id="path5872"
         d="M 90,301.78125 L 88.21875,305.375 L 80,321.8125 L 76.78125,315.375 L 76.25,314.25 L 75,314.25 L 50,314.25 C 49.263087,314.21542 48.566861,314.58888 48.18806,315.22192 C 47.809259,315.85497 47.809259,316.64503 48.18806,317.27808 C 48.566861,317.91112 49.263087,318.28458 50,318.25 L 73.75,318.25 L 78.21875,327.15625 L 80,330.75 L 81.78125,327.15625 L 90,310.71875 L 98.21875,327.15625 L 100,330.75 L 101.78125,327.15625 L 110,310.71875 L 113.21875,317.15625 L 118.21875,327.15625 L 120,330.75 L 121.78125,327.15625 L 130,310.71875 L 133.21875,317.15625 L 133.75,318.25 L 135,318.25 L 160,318.25 C 160.73691,318.28458 161.43314,317.91112 161.81194,317.27808 C 162.19074,316.64503 162.19074,315.85497 161.81194,315.22192 C 161.43314,314.58888 160.73691,314.21542 160,314.25 L 136.21875,314.25 L 131.78125,305.375 L 130,301.78125 L 128.21875,305.375 L 120,321.8125 L 116.78125,315.375 L 111.78125,305.375 L 110,301.78125 L 108.21875,305.375 L 100,321.8125 L 91.78125,305.375 L 90,301.78125 z"
         style="fill:url(#linearGradient2519);fill-opacity:1;fill-rule:evenodd;stroke:#c40e2a;stroke-width:0.49606299;stroke-linecap:round;stroke-linejoin:miter;stroke-miterlimit:4;stroke-dasharray:none;stroke-opacity:1;display:inline" />
      <path
         inkscape:transform-center-y="1.3741237"
         inkscape:transform-center-x="-1.889415"
         sodipodi:type="arc"
         style="fill:url(#radialGradient2521);fill-opacity:1;stroke:#00406b;stroke-width:0.5;stroke-linecap:round;stroke-linejoin:miter;stroke-miterlimit:4;stroke-dasharray:none;stroke-opacity:1;display:inline"
         id="path5830"
         sodipodi:cx="50"
         sodipodi:cy="146.25983"
         sodipodi:rx="5"
         sodipodi:ry="5"
         d="M 55,146.25983 A 5,5 0 1 1 45,146.25983 A 5,5 0 1 1 55,146.25983 z"
         transform="matrix(1.3000001,0,0,1.3000001,-16.500005,125.85954)" />
      <path
         inkscape:transform-center-y="1.3741194"
         inkscape:transform-center-x="-1.8894132"
         sodipodi:type="arc"
         style="fill:url(#radialGradient2523);fill-opacity:1;stroke:#008b00;stroke-width:0.5;stroke-linecap:round;stroke-linejoin:miter;stroke-miterlimit:4;stroke-dasharray:none;stroke-opacity:1;display:inline"
         id="path5850"
         sodipodi:cx="50"
         sodipodi:cy="146.25983"
         sodipodi:rx="5"
         sodipodi:ry="5"
         d="M 55,146.25983 A 5,5 0 1 1 45,146.25983 A 5,5 0 1 1 55,146.25983 z"
         transform="matrix(1.3,0,0,1.3,-16.5,101.12205)" />
      <path
         transform="translate(24.384425,-13.499175)"
         d="M 142,329.75983 A 3.5,3.5 0 1 1 135,329.75983 A 3.5,3.5 0 1 1 142,329.75983 z"
         sodipodi:ry="3.5"
         sodipodi:rx="3.5"
         sodipodi:cy="329.75983"
         sodipodi:cx="138.5"
         id="path5888"
         style="fill:#e0001f;fill-opacity:1;stroke:#e0001f;stroke-width:0.49606299;stroke-linecap:round;stroke-linejoin:miter;stroke-miterlimit:4;stroke-dasharray:none;stroke-opacity:1"
         sodipodi:type="arc" />
    </g>
    <g
       id="g3351"
       transform="translate(91.785526,-75.180043)">
      <rect
         rx="0.99636352"
         ry="1.0035746"
         y="486.88214"
         x="-66.78125"
         height="10"
         width="160"
         id="rect2527"
         style="fill:#343434;fill-opacity:1;stroke:#505050;stroke-width:0.5;stroke-linecap:round;stroke-linejoin:miter;stroke-miterlimit:4;stroke-dasharray:none;stroke-opacity:1" />
      <rect
         ry="0.83493042"
         rx="1.0047388"
         y="491.92346"
         x="-45.802265"
         height="24.958696"
         width="5.0420289"
         id="rect2529"
         style="fill:url(#linearGradient3557);fill-opacity:1;stroke:#bc417e;stroke-width:0.45797101000000001;stroke-linecap:round;stroke-linejoin:miter;stroke-miterlimit:4;stroke-dasharray:none;stroke-opacity:1" />
      <path
         inkscape:transform-center-y="27.794255"
         inkscape:transform-center-x="-48.172314"
         id="path2531"
         d="M 5.207763,531.3522 L 1.86828,533.57385 L -13.468116,543.69977 L -13.036885,536.51535 L -12.934461,535.27545 L -14.016993,534.65045 L -35.667628,522.15045 C -36.288523,521.75205 -37.078203,521.72736 -37.722774,522.08619 C -38.36735,522.44502 -38.76238,523.12924 -38.750854,523.86687 C -38.739323,524.6045 -38.323103,525.27604 -37.667628,525.61455 L -17.099525,537.48955 L -17.682599,547.43697 L -17.936866,551.43987 L -14.597383,549.21822 L 0.739013,539.0923 L -0.36209,557.43697 L -0.616358,561.43987 L 2.723125,559.21822 L 18.059521,549.0923 L 17.628291,556.27671 L 16.958418,567.43697 L 16.70415,571.43987 L 20.043633,569.21822 L 35.380029,559.0923 L 34.948799,566.27671 L 34.862,567.48955 L 35.944531,568.11455 L 57.595167,580.61455 C 58.216059,581.01295 59.005742,581.03764 59.650313,580.67881 C 60.294888,580.31998 60.689918,579.63576 60.678393,578.89813 C 60.666862,578.1605 60.250639,577.48896 59.595167,577.15045 L 39,565.25983 L 39.594512,555.3551 L 39.848779,551.3522 L 36.509297,553.57385 L 21.1729,563.69977 L 21.604131,556.51535 L 22.274004,545.3551 L 22.528271,541.3522 L 19.188789,543.57385 L 3.852392,553.69977 L 4.953496,535.3551 L 5.207763,531.3522 z"
         style="fill:url(#linearGradient3359);fill-opacity:1;fill-rule:evenodd;stroke:#c40e2a;stroke-width:0.49606299;stroke-linecap:round;stroke-linejoin:miter;stroke-miterlimit:4;stroke-dasharray:none;stroke-opacity:1;display:inline" />
      <path
         inkscape:transform-center-y="1.3741194"
         inkscape:transform-center-x="-1.8894132"
         sodipodi:type="arc"
         style="fill:url(#radialGradient3361);fill-opacity:1;stroke:#008b00;stroke-width:0.5;stroke-linecap:round;stroke-linejoin:miter;stroke-miterlimit:4;stroke-dasharray:none;stroke-opacity:1;display:inline"
         id="path2535"
         sodipodi:cx="50"
         sodipodi:cy="146.25983"
         sodipodi:rx="5"
         sodipodi:ry="5"
         d="M 55,146.25983 A 5,5 0 1 1 45,146.25983 A 5,5 0 1 1 55,146.25983 z"
         transform="matrix(1.3,0,0,1.3,-108.28125,302.00688)" />
      <path
         inkscape:transform-center-y="56.745691"
         inkscape:transform-center-x="-98.296375"
         transform="matrix(0.8660254,0.5,-0.5,0.8660254,106.02323,225.50355)"
         d="M 142,329.75983 A 3.5,3.5 0 1 1 135,329.75983 A 3.5,3.5 0 1 1 142,329.75983 z"
         sodipodi:ry="3.5"
         sodipodi:rx="3.5"
         sodipodi:cy="329.75983"
         sodipodi:cx="138.5"
         id="path2537"
         style="fill:#e0001f;fill-opacity:1;stroke:#e0001f;stroke-width:0.49606299;stroke-linecap:round;stroke-linejoin:miter;stroke-miterlimit:4;stroke-dasharray:none;stroke-opacity:1"
         sodipodi:type="arc" />
      <path
         id="path2545"
         d="M -36.654634,509.22146 C -40.226591,506.41123 -45.91499,506.34726 -48.877388,510.39189 C -49.87628,511.7557 -50.359271,513.42786 -50.223983,515.09926 C -50.088695,516.77066 -49.258093,518.51546 -47.650807,519.57989 C -46.618468,520.26357 -45.397177,520.55038 -44.15822,520.40555 C -42.919262,520.26073 -41.574286,519.57578 -40.838549,518.28071 C -40.390831,517.49263 -40.232729,516.60885 -40.389009,515.68959 C -40.545289,514.77033 -41.194626,513.69821 -42.285082,513.22368 C -42.916677,512.94883 -43.482805,512.89055 -44.179813,513.06795 C -44.876821,513.24536 -45.837624,513.96522 -46.072081,514.97046 C -46.080487,515.0065 -46.04208,515.02185 -46.049204,515.05583 C -46.073854,514.94154 -46.204218,514.90877 -46.214649,514.77989 C -46.268414,514.11562 -46.060115,513.30267 -45.6591,512.75515 C -44.207837,510.77371 -41.076755,510.80325 -39.110523,512.35019 C -36.001013,514.7966 -36.102298,519.64956 -38.609944,522.67066 C -39.120813,523.2117 -39.289482,523.99144 -39.047897,524.69525 C -38.806311,525.39906 -38.194328,525.91083 -37.458874,526.02408 C -36.72342,526.13732 -35.985832,525.83334 -35.543719,525.2348 C -31.720315,520.62854 -31.574886,513.21795 -36.654634,509.22146 z"
         style="fill:url(#radialGradient3363);fill-opacity:1;fill-rule:evenodd;stroke:#00406b;stroke-width:0.5;stroke-linecap:round;stroke-linejoin:miter;stroke-miterlimit:4;stroke-dasharray:none;stroke-opacity:1;display:inline" />
    </g>
    <g
       id="g3455"
       transform="translate(119.838,-23.298218)">
      <rect
         rx="0.99636352"
         ry="1.0035746"
         y="624.55804"
         x="-94.837997"
         height="10"
         width="160"
         id="rect3367"
         style="fill:#343434;fill-opacity:1;stroke:#505050;stroke-width:0.5;stroke-linecap:round;stroke-linejoin:miter;stroke-miterlimit:4;stroke-dasharray:none;stroke-opacity:1" />
      <path
         id="path3401"
         d="M -26.5625,627.34375 L -29.21875,630.34375 L -41.40625,644.0625 L -42.84375,637.03125 L -43.09375,635.8125 L -44.28125,635.5 L -68.4375,629.03125 C -69.507552,628.74648 -70.605853,629.38307 -70.890625,630.45312 C -71.175397,631.52318 -70.538802,632.62148 -69.46875,632.90625 L -46.5,639.0625 L -44.5,648.78125 L -43.71875,652.71875 L -41.0625,649.71875 L -28.875,636 L -25.1875,653.96875 L -24.40625,657.875 L -21.75,654.90625 L -9.5625,641.15625 L -8.125,648.1875 L -5.875,659.15625 L -5.0625,663.0625 L -2.40625,660.0625 L 9.75,646.34375 L 11.1875,653.375 L 11.4375,654.5625 L 12.65625,654.90625 L 36.78125,661.375 C 37.851302,661.6684 38.956599,661.0388 39.25,659.96875 C 39.543401,658.8987 38.913802,657.7934 37.84375,657.5 L 14.875,651.34375 L 12.875,641.59375 L 12.09375,637.6875 L 9.4375,640.6875 L -2.75,654.40625 L -4.1875,647.375 L -6.4375,636.4375 L -7.25,632.5 L -9.90625,635.5 L -22.0625,649.25 L -25.75,631.25 L -26.5625,627.34375 z"
         style="fill:url(#linearGradient3463);fill-opacity:1;fill-rule:evenodd;stroke:#bc417e;stroke-width:0.5;stroke-linecap:round;stroke-linejoin:miter;stroke-miterlimit:4;stroke-dasharray:none;stroke-opacity:1;display:inline" />
      <path
         inkscape:transform-center-y="1.3741194"
         inkscape:transform-center-x="-1.8894132"
         sodipodi:type="arc"
         style="fill:url(#radialGradient3465);fill-opacity:1;stroke:#008b00;stroke-width:0.5;stroke-linecap:round;stroke-linejoin:miter;stroke-miterlimit:4;stroke-dasharray:none;stroke-opacity:1;display:inline"
         id="path3373"
         sodipodi:cx="50"
         sodipodi:cy="146.25983"
         sodipodi:rx="5"
         sodipodi:ry="5"
         d="M 55,146.25983 A 5,5 0 1 1 45,146.25983 A 5,5 0 1 1 55,146.25983 z"
         transform="matrix(1.3,0,0,1.3,-136.338,439.68277)" />
      <path
         id="path3407"
         d="M 36.5,668.59375 C 35.901934,668.63743 35.355017,668.94713 35.009918,669.43753 C 34.664818,669.92794 34.557949,670.5473 34.71875,671.125 L 37.09375,680 L 33.96875,685.40625 L 32.96875,687.125 L 34.6875,688.125 L 45.21875,694.21875 L 39.15625,704.71875 L 38.15625,706.46875 L 39.875,707.46875 L 45.28125,710.59375 L 47.65625,719.4375 C 47.941022,720.50755 49.039323,721.14415 50.109375,720.85938 C 51.179427,720.5746 51.816022,719.4763 51.53125,718.40625 L 48.9375,708.75 L 48.71875,707.9375 L 48,707.53125 L 43.59375,705 L 49.6875,694.46875 L 50.6875,692.75 L 48.9375,691.75 L 38.4375,685.6875 L 40.96875,681.28125 L 41.375,680.5625 L 41.15625,679.75 L 38.59375,670.09375 C 38.353433,669.15114 37.469813,668.5181 36.5,668.59375 z"
         style="fill:url(#linearGradient3467);fill-opacity:1;fill-rule:evenodd;stroke:#aa0000;stroke-width:0.5;stroke-linecap:round;stroke-linejoin:miter;stroke-miterlimit:4;stroke-dasharray:none;stroke-opacity:1;display:inline" />
      <path
         inkscape:transform-center-y="2.0916114"
         inkscape:transform-center-x="-2.3232426"
         id="path3437"
         d="M 46.890173,659.83038 C 46.15629,655.34511 42.006507,651.45393 37.089651,652.4334 C 35.431735,652.76367 33.945726,653.66986 32.915973,654.9933 C 31.88622,656.31673 31.319394,658.16415 31.784844,660.03491 C 32.08379,661.23648 32.790206,662.2732 33.801333,663.00369 C 34.812453,663.73418 36.266722,664.13818 37.684211,663.68075 C 38.546791,663.4024 39.260557,662.85779 39.766566,662.07458 C 40.272574,661.29137 40.518439,660.06229 40.035318,658.97562 C 39.755493,658.34621 39.377575,657.92068 38.743918,657.58043 C 38.110255,657.24019 36.915575,657.12153 36.063445,657.70407 C 36.032894,657.72496 36.050832,657.76222 36.022618,657.78246 C 36.081682,657.68156 36.007733,657.5693 36.087137,657.46726 C 36.496397,656.94128 37.199302,656.4828 37.864892,656.35021 C 40.273631,655.87037 42.56164,658.00803 42.965615,660.47702 C 43.604483,664.38161 40.250354,667.89035 36.360368,668.42267 C 35.618189,668.47626 34.966937,668.93703 34.669399,669.61907 C 34.371868,670.30112 34.477131,671.09191 34.942712,671.67238 C 35.408308,672.25285 36.157417,672.52722 36.887776,672.38479 C 42.818821,671.57317 47.933846,666.20898 46.890173,659.83038 z"
         style="fill:url(#radialGradient3469);fill-opacity:1;fill-rule:evenodd;stroke:#00406b;stroke-width:0.5;stroke-linecap:round;stroke-linejoin:miter;stroke-miterlimit:4;stroke-dasharray:none;stroke-opacity:1;display:inline" />
      <path
         inkscape:transform-center-y="56.745691"
         inkscape:transform-center-x="-98.296375"
         transform="matrix(0.8660254,0.5,-0.5,0.8660254,95.185395,366.46053)"
         d="M 142,329.75983 A 3.5,3.5 0 1 1 135,329.75983 A 3.5,3.5 0 1 1 142,329.75983 z"
         sodipodi:ry="3.5"
         sodipodi:rx="3.5"
         sodipodi:cy="329.75983"
         sodipodi:cx="138.5"
         id="path3453"
         style="fill:#e0001f;fill-opacity:1;stroke:#e0001f;stroke-width:0.49606299;stroke-linecap:round;stroke-linejoin:miter;stroke-miterlimit:4;stroke-dasharray:none;stroke-opacity:1;display:inline"
         sodipodi:type="arc" />
    </g>
    <g
       id="g3535"
       transform="translate(19.84375,-43.750003)">
      <rect
         rx="0.99636352"
         ry="1.0035746"
         y="825.47412"
         x="4.3807526"
         height="10"
         width="160"
         id="rect3473"
         style="fill:#343434;fill-opacity:1;stroke:#505050;stroke-width:0.5;stroke-linecap:round;stroke-linejoin:miter;stroke-miterlimit:4;stroke-dasharray:none;stroke-opacity:1" />
      <path
         id="path3475"
         d="M 79.46875,833.19733 L 76.8125,836.19733 L 64.625,849.91608 L 63.1875,842.88483 L 62.9375,841.66608 L 61.75,841.35358 L 37.59375,834.88483 C 36.523698,834.60006 35.425397,835.23665 35.140625,836.3067 C 34.855853,837.37676 35.492448,838.47506 36.5625,838.75983 L 59.53125,844.91608 L 61.53125,854.63483 L 62.3125,858.57233 L 64.96875,855.57233 L 77.15625,841.85358 L 80.84375,859.82233 L 81.625,863.72858 L 84.28125,860.75983 L 96.46875,847.00983 L 97.90625,854.04108 L 100.15625,865.00983 L 100.96875,868.91608 L 103.625,865.91608 L 115.78125,852.19733 L 117.21875,859.22858 L 117.46875,860.41608 L 118.6875,860.75983 L 142.8125,867.22858 C 143.88255,867.52198 144.98785,866.89238 145.28125,865.82233 C 145.57465,864.75228 144.94505,863.64698 143.875,863.35358 L 120.90625,857.19733 L 118.90625,847.44733 L 118.125,843.54108 L 115.46875,846.54108 L 103.28125,860.25983 L 101.84375,853.22858 L 99.59375,842.29108 L 98.78125,838.35358 L 96.125,841.35358 L 83.96875,855.10358 L 80.28125,837.10358 L 79.46875,833.19733 z"
         style="fill:url(#linearGradient3543);fill-opacity:1;fill-rule:evenodd;stroke:#bc417e;stroke-width:0.5;stroke-linecap:round;stroke-linejoin:miter;stroke-miterlimit:4;stroke-dasharray:none;stroke-opacity:1;display:inline" />
      <path
         id="path3479"
         d="M 142.53125,874.44733 C 141.93318,874.49101 141.38627,874.80071 141.04117,875.29111 C 140.69607,875.78152 140.5892,876.40088 140.75,876.97858 L 143.125,885.85358 L 140,891.25983 L 139,892.97858 L 140.71875,893.97858 L 151.25,900.07233 L 145.1875,910.57233 L 144.1875,912.32233 L 145.90625,913.32233 L 151.3125,916.44733 L 153.6875,925.29108 C 153.97227,926.36113 155.07057,926.99773 156.14062,926.71296 C 157.21068,926.42818 157.84727,925.32988 157.5625,924.25983 L 154.96875,914.60358 L 154.75,913.79108 L 154.03125,913.38483 L 149.625,910.85358 L 155.71875,900.32233 L 156.71875,898.60358 L 154.96875,897.60358 L 144.46875,891.54108 L 147,887.13483 L 147.40625,886.41608 L 147.1875,885.60358 L 144.625,875.94733 C 144.38468,875.00472 143.50106,874.37168 142.53125,874.44733 z"
         style="fill:url(#linearGradient3545);fill-opacity:1;fill-rule:evenodd;stroke:#aa0000;stroke-width:0.5;stroke-linecap:round;stroke-linejoin:miter;stroke-miterlimit:4;stroke-dasharray:none;stroke-opacity:1;display:inline" />
      <path
         inkscape:transform-center-y="2.0916114"
         inkscape:transform-center-x="-2.3232426"
         id="path3481"
         d="M 152.92142,865.68396 C 152.18754,861.19869 148.03776,857.30751 143.1209,858.28698 C 141.46299,858.61725 139.97698,859.52344 138.94722,860.84688 C 137.91747,862.17031 137.35064,864.01773 137.81609,865.88849 C 138.11504,867.09006 138.82146,868.12678 139.83258,868.85727 C 140.8437,869.58776 142.29797,869.99176 143.71546,869.53433 C 144.57804,869.25598 145.29181,868.71137 145.79782,867.92816 C 146.30382,867.14495 146.54969,865.91587 146.06657,864.8292 C 145.78674,864.19979 145.40883,863.77426 144.77517,863.43401 C 144.1415,863.09377 142.94682,862.97511 142.0947,863.55765 C 142.06414,863.57854 142.08208,863.6158 142.05387,863.63604 C 142.11293,863.53514 142.03898,863.42288 142.11839,863.32084 C 142.52765,862.79486 143.23055,862.33638 143.89614,862.20379 C 146.30488,861.72395 148.59289,863.86161 148.99687,866.3306 C 149.63573,870.23519 146.2816,873.74393 142.39162,874.27625 C 141.64944,874.32984 140.99819,874.79061 140.70065,875.47265 C 140.40312,876.1547 140.50838,876.94549 140.97396,877.52596 C 141.43956,878.10643 142.18867,878.3808 142.91903,878.23837 C 148.85007,877.42675 153.9651,872.06256 152.92142,865.68396 z"
         style="fill:url(#radialGradient3547);fill-opacity:1;fill-rule:evenodd;stroke:#00406b;stroke-width:0.5;stroke-linecap:round;stroke-linejoin:miter;stroke-miterlimit:4;stroke-dasharray:none;stroke-opacity:1;display:inline" />
      <path
         inkscape:transform-center-y="56.745691"
         inkscape:transform-center-x="-98.296375"
         transform="matrix(0.8660254,0.5,-0.5,0.8660254,201.21664,572.31411)"
         d="M 142,329.75983 A 3.5,3.5 0 1 1 135,329.75983 A 3.5,3.5 0 1 1 142,329.75983 z"
         sodipodi:ry="3.5"
         sodipodi:rx="3.5"
         sodipodi:cy="329.75983"
         sodipodi:cx="138.5"
         id="path3483"
         style="fill:#e0001f;fill-opacity:1;stroke:#e0001f;stroke-width:0.49606299;stroke-linecap:round;stroke-linejoin:miter;stroke-miterlimit:4;stroke-dasharray:none;stroke-opacity:1;display:inline"
         sodipodi:type="arc" />
      <path
         id="path3493"
         d="M 33,822.25983 C 28.822414,820.46985 23.311286,821.88033 21.496656,826.55386 C 20.88478,828.12974 20.851034,829.86993 21.414302,831.44936 C 21.97757,833.02879 23.231457,834.49916 25.059471,835.11133 C 26.233581,835.50452 27.48749,835.46546 28.646748,835.00491 C 29.806006,834.54435 30.927875,833.53464 31.303355,832.09328 C 31.531845,831.21617 31.455821,830.32158 31.066944,829.47409 C 30.678068,828.62661 29.773371,827.75907 28.597255,827.58295 C 27.916045,827.48093 27.354122,827.57116 26.72678,827.92292 C 26.099438,828.27468 25.357687,829.21868 25.391394,830.25035 C 25.392603,830.28735 25.433675,830.29223 25.435588,830.3269 C 25.382195,830.22287 25.247794,830.22497 25.204362,830.10318 C 24.980503,829.47546 24.971296,828.63629 25.21694,828.00365 C 26.105918,825.71411 29.137956,824.93225 31.437566,825.91758 C 35.0743,827.47583 36.232505,832.18965 34.592223,835.75683 C 34.238794,836.41166 34.277681,837.20848 34.693195,837.82579 C 35.108709,838.44309 35.832297,838.77903 36.571999,838.69807 C 37.311702,838.6171 37.945482,838.13258 38.217617,837.44001 C 40.718554,832.00113 38.941027,824.80541 33,822.25983 z"
         style="fill:url(#radialGradient3549);fill-opacity:1;fill-rule:evenodd;stroke:#008b00;stroke-width:0.5;stroke-linecap:round;stroke-linejoin:miter;stroke-miterlimit:4;stroke-dasharray:none;stroke-opacity:1;display:inline" />
    </g>
  </g>
  <g
     inkscape:groupmode="layer"
     id="layer4"
     inkscape:label="Legend">
    <text
       xml:space="preserve"
       style="font-size:40px;font-style:normal;font-weight:normal;fill:#000000;fill-opacity:1;stroke:none;stroke-width:1px;stroke-linecap:butt;stroke-linejoin:miter;stroke-opacity:1;font-family:Bitstream Vera Sans"
       x="110"
       y="91.259827"
       id="text6076"><tspan
         sodipodi:role="line"
         id="tspan6078"
         x="110"
         y="91.259827"
         style="font-size:12px">Thick Fil</tspan><tspan
         sodipodi:role="line"
         x="110"
         y="106.25983"
         id="tspan6080"
         style="font-size:12px">Attachment site</tspan><tspan
         sodipodi:role="line"
         x="110"
         y="121.25983"
         id="tspan6082"
         style="font-size:12px">Crossbridge neck</tspan><tspan
         sodipodi:role="line"
         x="110"
         y="136.25983"
         id="tspan6084"
         style="font-size:12px">Converter domain</tspan><tspan
         sodipodi:role="line"
         x="110"
         y="151.25983"
         id="tspan6086"
         style="font-size:12px">Globular domain</tspan></text>
    <rect
       style="fill:url(#linearGradient3575);fill-opacity:1;stroke:#bc417e;stroke-width:0.5;stroke-linecap:round;stroke-linejoin:miter;stroke-miterlimit:4;stroke-dasharray:none;stroke-opacity:1"
       id="rect3567"
       width="70"
       height="10"
       x="230"
       y="141.25983"
       rx="1.0047388"
       ry="0.83493042" />
    <rect
       style="fill:url(#linearGradient3579);fill-opacity:1.0;stroke:#004080;stroke-width:0.50000000000000000;stroke-linecap:round;stroke-linejoin:miter;stroke-miterlimit:4;stroke-dasharray:none;stroke-opacity:1"
       id="rect3577"
       width="70"
       height="10"
       x="230"
       y="126.25983"
       rx="1.0047388"
       ry="0.83493042" />
    <rect
       style="fill:url(#linearGradient3583);fill-opacity:1.0;stroke:#7f003f;stroke-width:0.50000000000000000;stroke-linecap:round;stroke-linejoin:miter;stroke-miterlimit:4;stroke-dasharray:none;stroke-opacity:1"
       id="rect3581"
       width="70"
       height="10"
       x="230"
       y="111.25983"
       rx="1.0047388"
       ry="0.83493042" />
    <rect
       style="fill:url(#linearGradient3587);fill-opacity:1.0;stroke:#44ab00;stroke-width:0.50000000000000000;stroke-linecap:round;stroke-linejoin:miter;stroke-miterlimit:4;stroke-dasharray:none;stroke-opacity:1"
       id="rect3585"
       width="70"
       height="10"
       x="230"
       y="96.259827"
       rx="1.0047388"
       ry="0.83493042" />
    <rect
       style="fill:#343434;fill-opacity:1;stroke:#343434;stroke-width:0.50000000000000000;stroke-linecap:round;stroke-linejoin:miter;stroke-miterlimit:4;stroke-dasharray:none;stroke-opacity:1"
       id="rect3589"
       width="70"
       height="10"
       x="230"
       y="81.259827"
       rx="1.0047388"
       ry="0.83493042" />
  </g>
  <g
     inkscape:label="Text"
     inkscape:groupmode="layer"
     id="layer1"
     style="display:inline">
    <text
       xml:space="preserve"
       style="font-size:40px;font-style:normal;font-weight:normal;fill:#000000;fill-opacity:1;stroke:none;stroke-width:1px;stroke-linecap:butt;stroke-linejoin:miter;stroke-opacity:1;font-family:Bitstream Vera Sans"
       x="135.91934"
       y="41.661514"
       id="text2383"><tspan
         sodipodi:role="line"
         id="tspan2385"
         x="135.91934"
         y="41.661514">XB Type</tspan></text>
    <text
       xml:space="preserve"
       style="font-size:40px;font-style:normal;font-weight:normal;fill:#000000;fill-opacity:1;stroke:none;stroke-width:1px;stroke-linecap:butt;stroke-linejoin:miter;stroke-opacity:1;font-family:Bitstream Vera Sans"
       x="19.428711"
       y="191.25983"
       id="text3161"><tspan
         sodipodi:role="line"
         id="tspan3163"
         x="19.428711"
         y="191.25983"
         style="font-size:22">xNxG</tspan></text>
    <text
       xml:space="preserve"
       style="font-size:40px;font-style:normal;font-weight:normal;fill:#000000;fill-opacity:1;stroke:none;stroke-width:1px;stroke-linecap:butt;stroke-linejoin:miter;stroke-opacity:1;display:inline;font-family:Bitstream Vera Sans"
       x="20"
       y="373.25983"
       id="text3165"><tspan
         sodipodi:role="line"
         id="tspan3167"
         x="20"
         y="373.25983"
         style="font-size:22px">xxCG</tspan></text>
    <text
       xml:space="preserve"
       style="font-size:40px;font-style:normal;font-weight:normal;fill:#000000;fill-opacity:1;stroke:none;stroke-width:1px;stroke-linecap:butt;stroke-linejoin:miter;stroke-opacity:1;display:inline;font-family:Bitstream Vera Sans"
       x="20"
       y="561.25983"
       id="text3169"><tspan
         sodipodi:role="line"
         id="tspan3171"
         x="20"
         y="561.25983"
         style="font-size:22">xNCG</tspan></text>
    <text
       xml:space="preserve"
       style="font-size:40px;font-style:normal;font-weight:normal;fill:#000000;fill-opacity:1;stroke:none;stroke-width:1px;stroke-linecap:butt;stroke-linejoin:miter;stroke-opacity:1;display:inline;font-family:Bitstream Vera Sans"
       x="20"
       y="743.25983"
       id="text3173"><tspan
         sodipodi:role="line"
         id="tspan3175"
         x="20"
         y="743.25983"
         style="font-size:22px">TNCG</tspan></text>
  </g>
</svg>
